<?xml version="1.0" encoding="UTF-8" standalone="no"?>
<!DOCTYPE svg PUBLIC "-//W3C//DTD SVG 1.1//EN" "http://www.w3.org/Graphics/SVG/1.1/DTD/svg11.dtd">
<svg width="100%" height="100%" viewBox="0 0 281 158" version="1.1" xmlns="http://www.w3.org/2000/svg" xmlns:xlink="http://www.w3.org/1999/xlink" xml:space="preserve" xmlns:serif="http://www.serif.com/" style="fill-rule:evenodd;clip-rule:evenodd;stroke-miterlimit:10;">
    <g transform="matrix(1,0,0,1,-507.31,-152.334)">
        <g transform="matrix(0.894713,0,0,1,76.7074,0)">
            <text x="728.555px" y="243.024px" style="font-family:'Unpact';font-size:72.79px;fill:rgb(230,230,230);">N</text>
        </g>
        <g transform="matrix(0.983721,0,0,1,9.31443,0)">
            <text x="572.179px" y="292.212px" style="font-family:'RacingSansOne-Regular', 'Racing Sans One';font-size:66.209px;fill:rgb(250,2,183);">FETISH</text>
        </g>
    </g>
    <g transform="matrix(1,0,0,0.972388,-507.413,-147.066)">
        <clipPath id="_clip1">
            <path d="M595.625,156.221C591.863,156.221 588.815,158.12 588.815,160.462L588.815,187.001L583.896,187.001L583.896,176.096C583.896,174.178 580.845,172.621 577.084,172.621L532.247,172.621C528.484,172.621 525.436,174.178 525.436,176.096L525.436,243.551C525.436,245.472 528.484,247.027 532.247,247.027L542.844,247.027L542.94,247.089L720.536,247.089C721.124,247.175 721.738,247.227 722.376,247.227L767.214,247.227C770.977,247.227 774.026,245.608 774.026,243.609L774.026,173.41C774.026,171.412 770.977,169.792 767.214,169.792L722.376,169.792C718.614,169.792 715.568,171.412 715.568,173.41L715.568,189.607L710.647,189.607L710.647,166.497C710.647,164.335 707.6,162.585 703.838,162.585L658.998,162.585C655.24,162.585 652.19,164.335 652.19,166.497L652.19,179.103L647.269,179.103L647.269,160.462C647.269,158.12 644.223,156.221 640.461,156.221L595.625,156.221Z"/>
        </clipPath>
        <g clip-path="url(#_clip1)">
            <path d="M525.436,247.227L525.436,156.221L774.026,156.221L774.026,247.227L525.436,247.227Z" style="fill:url(#_Linear2);fill-rule:nonzero;"/>
        </g>
    </g>
    <g transform="matrix(0.678162,0,0,0.910818,0.929291,-0.609741)">
        <g transform="matrix(1.31932,0,0,1.09791,-669.65,-166.581)">
            <text x="513.901px" y="259.809px" style="font-family:'Unpact';font-size:95.764px;fill:rgb(170,166,163);">U</text>
        </g>
        <g transform="matrix(1.47457,0,0,1.09791,-749.436,-166.581)">
            <path d="M523.412,254.82C527.867,259.104 534.921,261.245 544.575,261.245L551.858,261.245C561.568,261.245 568.622,259.104 573.021,254.82C577.076,250.858 579.104,244.911 579.104,236.984L579.104,190.859L553.143,190.859L553.143,236.145C553.143,238.32 552.439,239.951 551.03,241.038C550.092,241.741 549.153,242.092 548.215,242.092C547.745,242.092 547.275,241.997 546.807,241.805C546.338,241.613 545.897,241.358 545.488,241.038C544.08,239.951 543.376,238.32 543.376,236.145L543.376,190.859L517.328,190.859L517.328,236.984C517.328,244.976 519.355,250.921 523.412,254.82Z" style="fill:none;fill-rule:nonzero;stroke:rgb(45,45,45);stroke-width:2px;"/>
        </g>
        <g transform="matrix(1.47457,0,0,1.09791,-749.436,-166.581)">
            <clipPath id="_clip3">
                <path d="M595.625,156.221C591.863,156.221 588.815,158.12 588.815,160.462L588.815,187.001L583.896,187.001L583.896,176.096C583.896,174.178 580.845,172.621 577.084,172.621L532.247,172.621C528.484,172.621 525.436,174.178 525.436,176.096L525.436,243.551C525.436,245.472 528.484,247.027 532.247,247.027L542.844,247.027L542.94,247.089L720.536,247.089C721.124,247.175 721.738,247.227 722.376,247.227L767.214,247.227C770.977,247.227 774.026,245.608 774.026,243.609L774.026,173.41C774.026,171.412 770.977,169.792 767.214,169.792L722.376,169.792C718.614,169.792 715.568,171.412 715.568,173.41L715.568,189.607L710.647,189.607L710.647,166.497C710.647,164.335 707.6,162.585 703.838,162.585L658.998,162.585C655.24,162.585 652.19,164.335 652.19,166.497L652.19,179.103L647.269,179.103L647.269,160.462C647.269,158.12 644.223,156.221 640.461,156.221L595.625,156.221Z"/>
            </clipPath>
            <g clip-path="url(#_clip3)">
                <path d="M525.436,247.227L525.436,156.221L774.026,156.221L774.026,247.227L525.436,247.227Z" style="fill:url(#_Linear4);fill-rule:nonzero;"/>
            </g>
        </g>
        <g transform="matrix(1.31932,0,0,1.09791,-669.65,-166.581)">
            <text x="513.901px" y="260.213px" style="font-family:'Unpact';font-size:95.764px;fill:rgb(230,230,230);">U</text>
        </g>
        <g transform="matrix(1.47457,0,0,1.09791,-749.436,-166.581)">
            <path d="M523.412,255.224C527.867,259.508 534.921,261.649 544.575,261.649L551.858,261.649C561.568,261.649 568.622,259.508 573.021,255.224C577.076,251.262 579.104,245.315 579.104,237.388L579.104,191.263L553.143,191.263L553.143,236.549C553.143,238.724 552.439,240.355 551.03,241.442C550.092,242.145 549.153,242.496 548.215,242.496C547.745,242.496 547.275,242.401 546.807,242.209C546.338,242.017 545.897,241.762 545.488,241.442C544.08,240.355 543.376,238.724 543.376,236.549L543.376,191.263L517.328,191.263L517.328,237.388C517.328,245.38 519.355,251.325 523.412,255.224Z" style="fill:none;fill-rule:nonzero;stroke:rgb(45,45,45);stroke-width:0.5px;"/>
        </g>
        <g transform="matrix(1.31932,0,0,1.09791,-659.156,-166.581)">
            <text x="581.503px" y="243.024px" style="font-family:'Unpact';font-size:72.79px;fill:rgb(230,230,230);">RBA</text>
        </g>
        <g transform="matrix(1.47457,0,0,1.09791,-749.436,-166.581)">
            <path d="M602.864,243.024L602.864,224.39L604.557,224.39C605.902,224.39 606.846,224.717 607.39,225.373C607.932,226.027 608.312,227.301 608.53,229.194L608.66,230.868L608.855,233.634C609.028,235.526 609.398,237.929 609.963,240.84L610.484,243.024L629.631,243.024C629.326,241.859 629.11,241.022 628.979,240.513C628.849,240.003 628.761,239.579 628.718,239.239L627.547,228.248L627.221,225.7L626.83,223.953C626.352,221.964 625.603,220.423 624.584,219.331C623.562,218.239 622.119,217.402 620.253,216.82C619.818,216.627 619.427,216.528 619.08,216.528L620.318,216.092C625.267,214.151 627.742,210.414 627.742,204.882C627.742,199.594 626.537,195.893 624.128,193.782C621.718,191.671 617.365,190.615 611.07,190.615L584.108,190.615L584.108,243.024L602.864,243.024ZM602.408,211.797L602.408,202.698L606.967,202.698C609.093,202.994 610.158,204.622 610.158,207.581C610.158,208.814 609.745,209.825 608.921,210.614C608.095,211.404 606.967,211.797 605.534,211.797L602.408,211.797Z" style="fill:none;fill-rule:nonzero;stroke:rgb(45,45,45);stroke-width:0.5px;"/>
        </g>
        <g transform="matrix(1.47457,0,0,1.09791,-749.436,-166.581)">
            <path d="M632.692,243.024L659.913,243.024C665.427,243.024 669.747,241.859 672.874,239.53C675.782,237.395 677.454,234.411 677.889,230.577C677.889,230.384 677.931,230.067 678.019,229.631L678.019,227.738C678.019,225.943 677.736,224.354 677.172,222.97C676.608,221.587 675.717,220.217 674.502,218.858C673.286,217.5 671.723,216.554 669.813,216.019L668.705,215.801C670.008,215.509 671.223,214.95 672.353,214.122C674.002,212.905 675.186,211.384 675.903,209.559C676.618,207.734 676.977,205.508 676.977,202.879C676.672,199.23 675.239,196.31 672.678,194.12C669.944,191.783 666.296,190.615 661.738,190.615L632.692,190.615L632.692,243.024ZM651.447,232.033L651.447,221.478L655.681,221.478C656.592,221.478 657.319,221.639 657.863,221.958C658.405,222.279 658.914,222.783 659.393,223.472C659.87,224.161 660.11,225.12 660.11,226.35C660.11,226.891 660.087,227.309 660.044,227.604C659.783,230.065 658.633,231.542 656.592,232.033L651.447,232.033ZM651.447,210.997L651.447,201.607L655.355,201.607C658.046,201.607 659.393,203.295 659.393,206.668C659.393,209.554 658.133,210.997 655.615,210.997L651.447,210.997Z" style="fill:none;fill-rule:nonzero;stroke:rgb(45,45,45);stroke-width:0.5px;"/>
        </g>
        <g transform="matrix(1.47457,0,0,1.09791,-749.436,-166.581)">
            <path d="M696.319,243.024L697.816,234.944L709.604,234.944L711.102,243.024L729.467,243.024L716.378,190.615L691.044,190.615L677.953,243.024L696.319,243.024ZM699.705,221.988L703.677,204.082L708.172,221.988L699.705,221.988Z" style="fill:none;fill-rule:nonzero;stroke:rgb(45,45,45);stroke-width:0.5px;"/>
        </g>
    </g>
    <g transform="matrix(1,0,0,1,-507.31,-152.334)">
        <path d="M746.073,243.024L745.617,213.399L756.363,243.024L778.506,243.024L778.506,190.615L763.788,190.615L764.243,220.896L753.693,190.615L731.16,190.615L731.16,243.024L746.073,243.024Z" style="fill:none;fill-rule:nonzero;stroke:rgb(45,45,45);stroke-width:1px;"/>
    </g>
    <g transform="matrix(1,0,0,1,-507.31,-152.334)">
        <path d="M746.073,243.024L745.617,213.399L756.363,243.024L778.506,243.024L778.506,190.615L763.788,190.615L764.243,220.896L753.693,190.615L731.16,190.615L731.16,243.024L746.073,243.024Z" style="fill:rgb(230,230,230);fill-rule:nonzero;stroke:rgb(45,45,45);stroke-width:1px;"/>
    </g>
    <defs>
        <linearGradient id="_Linear2" x1="0" y1="0" x2="1" y2="0" gradientUnits="userSpaceOnUse" gradientTransform="matrix(-4e-06,-91.0059,91.0059,-4e-06,649.731,247.227)"><stop offset="0" style="stop-color:rgb(35,31,32);stop-opacity:1"/><stop offset="1" style="stop-color:rgb(77,77,77);stop-opacity:1"/></linearGradient>
        <linearGradient id="_Linear4" x1="0" y1="0" x2="1" y2="0" gradientUnits="userSpaceOnUse" gradientTransform="matrix(-4e-06,-91.0059,91.0059,-4e-06,649.731,247.227)"><stop offset="0" style="stop-color:rgb(35,31,32);stop-opacity:1"/><stop offset="1" style="stop-color:rgb(77,77,77);stop-opacity:1"/></linearGradient>
    </defs>
</svg>
